# xmcd
#
# Track frame offsets:
#	150
#	11886
#	22912
#	38585
#	47838
#	60436
#	72174
#	81917
#	91323
#	105140
#	118646
#	135455
#	146844
#	158086
#	173401
#
# Disc length: 2452 seconds
#
# Revision: 1
# Processed by: cddbd v1.5.1PL0 Copyright (c) Steve Scherf et al.
# Submitted via: audiograbber 1.83.01
#
DISCID=b309920f
DTITLE=Cam Waters - Central Standard
DYEAR=1900
DGENRE=
TTITLE0=Duncan and Brady
TTITLE1=Your Fault Now
TTITLE2=Meeting at the Crossroads
TTITLE3=Church Bell Blues
TTITLE4=Diamond Joe
TTITLE5=Long John
TTITLE6=You Got to Reap What You Sow
TTITLE7=A Well Crafted Song
TTITLE8=The Roving Gambler
TTITLE9='Fore Day Creep
TTITLE10=Faded to Gray
TTITLE11=Met a Gal on Sunday
TTITLE12=Little Red Riding Hood
TTITLE13=Detroit Bound Blues
TTITLE14=Downtown Blues
EXTD=
EXTT0=
EXTT1=
EXTT2=
EXTT3=
EXTT4=
EXTT5=
EXTT6=
EXTT7=
EXTT8=
EXTT9=
EXTT10=
EXTT11=
EXTT12=
EXTT13=
EXTT14=
PLAYORDER=
